<svg width="28" height="24" viewBox="0 0 28 24" fill="none" xmlns="http://www.w3.org/2000/svg">
<path d="M24 14C24 14.2652 23.8946 14.5196 23.7071 14.7071C23.5196 14.8946 23.2652 15 23 15C22.7348 15 22.4804 14.8946 22.2929 14.7071C22.1054 14.5196 22 14.2652 22 14C22 13.7348 22.1054 13.4804 22.2929 13.2929C22.4804 13.1054 22.7348 13 23 13C23.2652 13 23.5196 13.1054 23.7071 13.2929C23.8946 13.4804 24 13.7348 24 14ZM5 13C4.73478 13 4.48043 13.1054 4.29289 13.2929C4.10536 13.4804 4 13.7348 4 14C4 14.2652 4.10536 14.5196 4.29289 14.7071C4.48043 14.8946 4.73478 15 5 15C5.26522 15 5.51957 14.8946 5.70711 14.7071C5.89464 14.5196 6 14.2652 6 14C6 13.7348 5.89464 13.4804 5.70711 13.2929C5.51957 13.1054 5.26522 13 5 13ZM25.693 8L26.113 9.119C27.253 10.036 28 11.426 28 13V22C28 23.103 27.103 24 26 24H24C22.897 24 22 23.103 22 22V20H6V22C6 23.103 5.103 24 4 24H2C0.897 24 0 23.103 0 22V13C0 11.425 0.746 10.035 1.888 9.118L2.308 8H0V6H3V6.152L4.82 1.298C4.96401 0.917412 5.2202 0.589529 5.55466 0.357747C5.88912 0.125964 6.28608 0.00121162 6.693 0H21.307C22.136 0 22.887 0.521 23.18 1.297L25 6.151V6H28V8H25.693ZM4 20H2V22H4V20ZM26 20H24V22H26V20ZM26 18V13C26 11.346 24.654 10 23 10H5C3.346 10 2 11.346 2 13V18H26ZM23 8H23.557L21.307 2H6.693L4.443 8H23ZM8 15H20V13H8V15Z" fill="black"/>
</svg>
