<svg width="57" height="72" viewBox="0 0 57 72" fill="none" xmlns="http://www.w3.org/2000/svg">
<mask id="path-1-inside-1_1_564" fill="white">
<path fill-rule="evenodd" clip-rule="evenodd" d="M5.74148 45.2571C6.03886 45.6461 6.33941 46.0327 6.64311 46.4169L28.5 72L50.3647 46.4066C50.4812 46.2703 51.2585 45.2571 51.2585 45.2571L51.2611 45.2494C54.993 40.3705 57.009 34.4112 57 28.2857C57 20.7839 53.9973 13.5893 48.6525 8.28469C43.3077 2.98009 36.0587 0 28.5 0C20.9413 0 13.6923 2.98009 8.34748 8.28469C3.0027 13.5893 3.03211e-05 20.7839 3.03211e-05 28.2857C-0.00901944 34.414 2.00793 40.376 5.74148 45.2571ZM49.469 44.3034L49.4708 44.2982L49.6725 44.0343C53.1378 39.504 55.0084 33.9726 55 28.2887L55 28.2857C55 21.3192 52.2117 14.6349 47.2437 9.70423C42.2751 4.77302 35.5331 2 28.5 2C21.4669 2 14.7249 4.77302 9.75635 9.70423C4.78829 14.6349 2.00003 21.3192 2.00003 28.2857V28.2887C1.99163 33.9754 3.86316 39.5095 7.33005 44.0421C7.61318 44.4124 7.89957 44.7809 8.18857 45.1468L28.5 68.921L48.844 45.1075L48.8449 45.1064C48.8428 45.1089 48.8457 45.1052 48.8543 45.0945C48.8713 45.073 48.9109 45.0233 48.978 44.9374C49.0638 44.8278 49.1692 44.6919 49.2728 44.5578C49.3419 44.4683 49.4096 44.3806 49.469 44.3034Z"/>
</mask>
<path fill-rule="evenodd" clip-rule="evenodd" d="M5.74148 45.2571C6.03886 45.6461 6.33941 46.0327 6.64311 46.4169L28.5 72L50.3647 46.4066C50.4812 46.2703 51.2585 45.2571 51.2585 45.2571L51.2611 45.2494C54.993 40.3705 57.009 34.4112 57 28.2857C57 20.7839 53.9973 13.5893 48.6525 8.28469C43.3077 2.98009 36.0587 0 28.5 0C20.9413 0 13.6923 2.98009 8.34748 8.28469C3.0027 13.5893 3.03211e-05 20.7839 3.03211e-05 28.2857C-0.00901944 34.414 2.00793 40.376 5.74148 45.2571ZM49.469 44.3034L49.4708 44.2982L49.6725 44.0343C53.1378 39.504 55.0084 33.9726 55 28.2887L55 28.2857C55 21.3192 52.2117 14.6349 47.2437 9.70423C42.2751 4.77302 35.5331 2 28.5 2C21.4669 2 14.7249 4.77302 9.75635 9.70423C4.78829 14.6349 2.00003 21.3192 2.00003 28.2857V28.2887C1.99163 33.9754 3.86316 39.5095 7.33005 44.0421C7.61318 44.4124 7.89957 44.7809 8.18857 45.1468L28.5 68.921L48.844 45.1075L48.8449 45.1064C48.8428 45.1089 48.8457 45.1052 48.8543 45.0945C48.8713 45.073 48.9109 45.0233 48.978 44.9374C49.0638 44.8278 49.1692 44.6919 49.2728 44.5578C49.3419 44.4683 49.4096 44.3806 49.469 44.3034Z" fill="#BF343E"/>
<path d="M6.64311 46.4169L5.07421 47.6572L5.0978 47.6871L5.1225 47.716L6.64311 46.4169ZM5.74148 45.2571L7.33035 44.0425L7.33005 44.0421L5.74148 45.2571ZM28.5 72L26.9794 73.2991L28.5 75.079L30.0206 73.2991L28.5 72ZM50.3647 46.4066L48.8449 45.1065L48.844 45.1075L50.3647 46.4066ZM51.2585 45.2571L52.8453 46.4745L53.0484 46.2098L53.1546 45.8935L51.2585 45.2571ZM51.2611 45.2494L49.6725 44.0343L49.4707 44.2982L49.3651 44.613L51.2611 45.2494ZM57 28.2857H55L55 28.2887L57 28.2857ZM48.6525 8.28469L47.2437 9.70423L48.6525 8.28469ZM8.34748 8.28469L9.75635 9.70423L8.34748 8.28469ZM3.03211e-05 28.2857L2.00003 28.2887V28.2857H3.03211e-05ZM49.4708 44.2982L47.8822 43.0831L47.6803 43.347L47.5746 43.662L49.4708 44.2982ZM49.469 44.3034L51.0536 45.5237L51.2584 45.2578L51.3651 44.9396L49.469 44.3034ZM49.6725 44.0343L48.084 42.8192L48.084 42.8193L49.6725 44.0343ZM55 28.2887L53 28.2913L53 28.2916L55 28.2887ZM55 28.2857H53V28.2883L55 28.2857ZM47.2437 9.70423L45.8348 11.1238L47.2437 9.70423ZM9.75635 9.70423L11.1652 11.1238L9.75635 9.70423ZM2.00003 28.2887L4.00003 28.2916V28.2887H2.00003ZM7.33005 44.0421L8.91894 42.8274L8.91862 42.827L7.33005 44.0421ZM8.18857 45.1468L6.61913 46.3865L6.64297 46.4167L6.66796 46.4459L8.18857 45.1468ZM28.5 68.921L26.9794 70.2201L28.5 72L30.0206 70.2201L28.5 68.921ZM48.844 45.1075L47.3251 43.8064L47.3234 43.8084L48.844 45.1075ZM48.8449 45.1064L50.3638 46.4076L47.3261 43.8052L48.8449 45.1064ZM48.8543 45.0945L50.4191 46.34L50.4193 46.3397L48.8543 45.0945ZM48.978 44.9374L47.4026 43.7054L47.4026 43.7054L48.978 44.9374ZM49.2728 44.5578L47.6902 43.3349L47.6902 43.3349L49.2728 44.5578ZM8.21202 45.1765C7.91505 44.8008 7.62115 44.4228 7.33035 44.0425L4.1526 46.4718C4.45657 46.8694 4.76378 47.2646 5.07421 47.6572L8.21202 45.1765ZM51.2585 45.2571C49.6717 44.0398 49.6717 44.0398 49.6717 44.0398C49.6717 44.0398 49.6717 44.0398 49.6717 44.0398C49.6717 44.0398 49.6716 44.0398 49.6716 44.0399C49.6715 44.04 49.6714 44.0402 49.6712 44.0404C49.6709 44.0409 49.6703 44.0415 49.6696 44.0425C49.6682 44.0443 49.6661 44.0471 49.6633 44.0508C49.6576 44.0581 49.6493 44.0689 49.6387 44.0827C49.6175 44.1104 49.587 44.1501 49.5499 44.1983C49.4758 44.2946 49.376 44.4243 49.2728 44.5578C49.1692 44.6919 49.0638 44.8278 48.978 44.9374C48.8773 45.0663 48.8386 45.1138 48.8449 45.1065L51.8844 47.7067C51.9847 47.5895 52.2518 47.2444 52.4379 47.0037C52.5435 46.8669 52.6453 46.7347 52.7206 46.6369C52.7582 46.5879 52.7893 46.5475 52.8111 46.5192C52.8219 46.505 52.8304 46.4939 52.8363 46.4863C52.8392 46.4825 52.8414 46.4796 52.843 46.4776C52.8437 46.4766 52.8443 46.4759 52.8447 46.4754C52.8449 46.4751 52.845 46.4749 52.8452 46.4748C52.8452 46.4747 52.8452 46.4746 52.8453 46.4746C52.8453 46.4746 52.8453 46.4746 52.8453 46.4746C52.8453 46.4745 52.8453 46.4745 51.2585 45.2571ZM49.3651 44.613L49.3625 44.6208L53.1546 45.8935L53.1572 45.8858L49.3651 44.613ZM55 28.2887C55.0084 33.9726 53.1378 39.504 49.6725 44.0343L52.8497 46.4645C56.8482 41.237 59.0097 34.8498 59 28.2828L55 28.2887ZM47.2437 9.70423C52.2117 14.6349 55 21.3192 55 28.2857H59C59 20.2486 55.7829 12.5436 50.0614 6.86515L47.2437 9.70423ZM28.5 2C35.5331 2 42.2751 4.77302 47.2437 9.70423L50.0614 6.86516C44.3404 1.18717 36.5842 -2 28.5 -2V2ZM9.75635 9.70423C14.7249 4.77302 21.4669 2 28.5 2V-2C20.4158 -2 12.6596 1.18717 6.93861 6.86516L9.75635 9.70423ZM2.00003 28.2857C2.00003 21.3192 4.78829 14.6349 9.75635 9.70423L6.93861 6.86516C1.21711 12.5436 -1.99997 20.2486 -1.99997 28.2857H2.00003ZM7.33005 44.0421C3.86316 39.5095 1.99163 33.9754 2.00003 28.2887L-1.99997 28.2828C-2.00967 34.8526 0.152707 41.2425 4.15291 46.4722L7.33005 44.0421ZM47.5746 43.662L47.5728 43.6673L51.3651 44.9396L51.3669 44.9343L47.5746 43.662ZM48.084 42.8193L47.8822 43.0831L51.0593 45.5132L51.2611 45.2494L48.084 42.8193ZM53 28.2916C53.0077 33.534 51.2825 38.6376 48.084 42.8192L51.2611 45.2494C54.993 40.3705 57.009 34.4112 57 28.2857L53 28.2916ZM53 28.2883L53 28.2913L57 28.2861L57 28.2831L53 28.2883ZM45.8348 11.1238C50.4261 15.6806 53 21.8545 53 28.2857H57C57 20.7839 53.9973 13.5893 48.6525 8.28469L45.8348 11.1238ZM28.5 4C35.0075 4 41.2424 6.56594 45.8348 11.1238L48.6525 8.28469C43.3078 2.9801 36.0587 0 28.5 0V4ZM11.1652 11.1238C15.7576 6.56594 21.9925 4 28.5 4V0C20.9413 0 13.6923 2.9801 8.34748 8.28469L11.1652 11.1238ZM4.00003 28.2857C4.00003 21.8545 6.57389 15.6806 11.1652 11.1238L8.34748 8.28469C3.00269 13.5893 3.02792e-05 20.7839 3.02792e-05 28.2857H4.00003ZM4.00003 28.2887V28.2857H3.02792e-05V28.2887H4.00003ZM8.91862 42.827C5.71839 38.6431 3.99228 33.5368 4.00003 28.2916L3.2461e-05 28.2857C-0.00901959 34.414 2.00793 40.376 5.74148 45.2571L8.91862 42.827ZM9.75801 43.9071C9.47556 43.5495 9.19566 43.1893 8.91894 42.8274L5.74117 45.2567C6.03071 45.6355 6.32358 46.0123 6.61913 46.3865L9.75801 43.9071ZM30.0206 67.6218L9.70918 43.8477L6.66796 46.4459L26.9794 70.2201L30.0206 67.6218ZM47.3234 43.8084L26.9793 67.6219L30.0206 70.2201L50.3647 46.4066L47.3234 43.8084ZM47.326 43.8053L47.3251 43.8064L50.3629 46.4086L50.3638 46.4076L47.326 43.8053ZM47.2895 43.849C47.2876 43.8513 47.2796 43.8613 47.2734 43.8692C47.2716 43.8715 47.2664 43.878 47.2601 43.8863C47.2571 43.8902 47.2506 43.8986 47.2426 43.9094C47.2412 43.9112 47.2139 43.9474 47.1825 43.9943C47.173 44.0084 47.156 44.0342 47.1358 44.0673C47.1229 44.0885 47.075 44.1672 47.026 44.2741C47.0045 44.321 46.9483 44.4468 46.9053 44.6169C46.8836 44.7027 46.85 44.858 46.8449 45.0558C46.8403 45.2365 46.8544 45.6072 47.0621 46.0149C47.3059 46.4935 47.7362 46.8609 48.2634 47.021C48.7135 47.1576 49.0913 47.1007 49.2743 47.0604C49.6231 46.9836 49.8623 46.8296 49.9092 46.8001C50.06 46.7052 50.1641 46.61 50.1794 46.5962C50.216 46.5635 50.2437 46.5362 50.2573 46.5225C50.2857 46.4942 50.307 46.4711 50.3149 46.4627C50.333 46.443 50.3468 46.4272 50.3506 46.4228C50.3565 46.4161 50.3612 46.4106 50.3638 46.4076L47.3261 43.8052C47.3284 43.8026 47.3328 43.7974 47.3385 43.7909C47.3422 43.7867 47.3558 43.7711 47.3738 43.7515C47.3816 43.7431 47.4029 43.7201 47.4312 43.6918C47.4449 43.6781 47.4726 43.6508 47.5091 43.6181C47.5244 43.6044 47.6285 43.5091 47.7794 43.4142C47.8262 43.3848 48.0654 43.2307 48.4142 43.1539C48.5972 43.1137 48.975 43.0568 49.4251 43.1934C49.9523 43.3534 50.3826 43.7209 50.6264 44.1995C50.8341 44.6072 50.8482 44.9778 50.8436 45.1586C50.8385 45.3563 50.8049 45.5117 50.7832 45.5974C50.7402 45.7676 50.684 45.8933 50.6625 45.9402C50.6135 46.0472 50.5656 46.1258 50.5527 46.1469C50.5326 46.18 50.5155 46.2058 50.5061 46.2199C50.4747 46.2668 50.4475 46.3028 50.4463 46.3044C50.4384 46.315 50.432 46.3232 50.4293 46.3269C50.4234 46.3345 50.4188 46.3403 50.4178 46.3416C50.4146 46.3456 50.4124 46.3484 50.4191 46.34L47.2895 43.849ZM47.4026 43.7054C47.34 43.7854 47.3041 43.8305 47.2892 43.8493L50.4193 46.3397C50.4386 46.3155 50.4818 46.2611 50.5535 46.1694L47.4026 43.7054ZM47.6902 43.3349C47.5875 43.4678 47.4848 43.6002 47.4026 43.7054L50.5535 46.1695C50.6428 46.0553 50.7509 45.9159 50.8553 45.7807L47.6902 43.3349ZM47.8844 43.0832C47.8255 43.1597 47.7585 43.2465 47.6902 43.3349L50.8553 45.7808C50.9253 45.6901 50.9937 45.6015 51.0536 45.5237L47.8844 43.0832ZM30.0206 70.7009L8.16373 45.1177L5.1225 47.716L26.9794 73.2991L30.0206 70.7009ZM48.844 45.1075L26.9794 70.7009L30.0206 73.2991L51.8853 47.7057L48.844 45.1075Z" fill="#BF343E" mask="url(#path-1-inside-1_1_564)"/>
<path d="M40.8409 21.2102C40.1568 20.5095 39.3445 19.9537 38.4504 19.5744C37.5563 19.1952 36.598 19 35.6302 19C34.6625 19 33.7042 19.1952 32.8101 19.5744C31.916 19.9537 31.1037 20.5095 30.4195 21.2102L28.9996 22.6637L27.5798 21.2102C26.1978 19.7955 24.3234 19.0007 22.3691 19.0007C20.4147 19.0007 18.5403 19.7955 17.1583 21.2102C15.7764 22.6249 15 24.5436 15 26.5443C15 28.5449 15.7764 30.4637 17.1583 31.8783L18.5782 33.3318L28.9996 44L39.4211 33.3318L40.8409 31.8783C41.5254 31.178 42.0684 30.3464 42.4389 29.4312C42.8093 28.5159 43 27.535 43 26.5443C43 25.5536 42.8093 24.5726 42.4389 23.6573C42.0684 22.7421 41.5254 21.9105 40.8409 21.2102Z" stroke="#BF343E" stroke-width="2" stroke-linecap="round" stroke-linejoin="round"/>
</svg>
