<svg width="29" height="30" viewBox="0 0 29 30" fill="none" xmlns="http://www.w3.org/2000/svg">
<path d="M24 0C24.6566 0 25.3068 0.129329 25.9134 0.380602C26.52 0.631876 27.0712 1.00017 27.5355 1.46447C27.9998 1.92876 28.3681 2.47995 28.6194 3.08658C28.8707 3.69321 29 4.34339 29 5C29 11.389 27.408 18.187 25 19.693V30H23V19.694C20.636 18.216 19.058 11.632 19.002 5.345L19 5L19.005 4.783C19.0609 3.49575 19.6116 2.27978 20.5422 1.38866C21.4728 0.497541 22.7115 7.44425e-05 24 0ZM15 0V18.118C17.317 18.675 19 21.128 19 24C19 27.27 16.817 30 14 30C11.183 30 9 27.27 9 24C9 21.128 10.683 18.674 13 18.118V0H15ZM0 0H1C5.47 0 7.934 6.365 7.999 18.505L8 20H1.999L2 30H0V0ZM14 20C12.398 20 11 21.748 11 24C11 26.252 12.398 28 14 28C15.602 28 17 26.252 17 24C17 21.748 15.602 20 14 20ZM2 2.239V18H5.995L5.978 17.036L5.951 16.087C5.673 8.157 4.235 3.623 2.224 2.364L2.104 2.294L2 2.239ZM21.005 4.824L21 5L21.002 5.31C21.047 9.631 22.033 14.443 23.001 16.7V2.17C22.4441 2.36693 21.9577 2.72379 21.6026 3.19588C21.2476 3.66797 21.0397 4.23432 21.005 4.824ZM25.001 2.171V16.697C25.99 14.387 27 9.4 27 5C27 4.37955 26.8076 3.77437 26.4495 3.26774C26.0913 2.76111 25.5859 2.37795 25.001 2.171Z" fill="black"/>
</svg>
