<svg width="31" height="23" viewBox="0 0 31 23" fill="none" xmlns="http://www.w3.org/2000/svg">
<path d="M15.4996 15.7714C17.4909 15.7714 19.1052 17.3896 19.1052 19.3857C19.1052 21.3818 17.4909 23 15.4996 23C13.5083 23 11.894 21.3818 11.894 19.3857C11.894 17.3896 13.5083 15.7714 15.4996 15.7714ZM15.4996 17.7429C14.5945 17.7429 13.8607 18.4784 13.8607 19.3857C13.8607 20.293 14.5945 21.0286 15.4996 21.0286C16.4048 21.0286 17.1385 20.293 17.1385 19.3857C17.1385 18.4784 16.4048 17.7429 15.4996 17.7429ZM15.4997 10.5144C18.958 10.5144 21.9529 12.5027 23.409 15.4011L21.9199 16.8922C20.9226 14.3139 18.4241 12.4858 15.4997 12.4858C12.5753 12.4858 10.0769 14.3139 9.07957 16.8922L7.59096 15.4001C9.04721 12.5023 12.0419 10.5144 15.4997 10.5144ZM15.4998 5.2574C20.3973 5.2574 24.7114 7.76132 27.2376 11.5617L25.8146 12.9884C23.6762 9.53128 19.8562 7.22882 15.4998 7.22882C11.1434 7.22882 7.3235 9.53128 5.18505 12.9884L3.76206 11.5617C6.28822 7.76132 10.6023 5.2574 15.4998 5.2574ZM15.4996 0C21.8432 0 27.4735 3.06166 31 7.79128L29.5933 9.20182C26.4381 4.82188 21.301 1.97143 15.4996 1.97143C9.69874 1.97143 4.56191 4.82145 1.40665 9.20083L0 7.79029C3.52656 3.06123 9.15646 0 15.4996 0Z" fill="black"/>
</svg>
